<mxfile host="Electron" modified="2024-03-27T16:02:54.079Z" agent="Mozilla/5.0 (Windows NT 10.0; Win64; x64) AppleWebKit/537.36 (KHTML, like Gecko) draw.io/24.0.4 Chrome/120.0.6099.109 Electron/28.1.0 Safari/537.36" etag="lW_rBbOocRzOWKQOlIik" version="24.0.4" type="device">
  <diagram name="Страница — 1" id="f5qaqixOcX6vG_OhwR0j">
    <mxGraphModel dx="2647" dy="1703" grid="1" gridSize="10" guides="1" tooltips="1" connect="1" arrows="1" fold="1" page="1" pageScale="1" pageWidth="649" pageHeight="1011" math="0" shadow="0">
      <root>
        <mxCell id="0" />
        <mxCell id="1" parent="0" />
        <mxCell id="OJsQ_6PMIpKqbklDKm9F-10" style="edgeStyle=orthogonalEdgeStyle;rounded=0;orthogonalLoop=1;jettySize=auto;html=1;exitX=0.5;exitY=0.5;exitDx=0;exitDy=20;exitPerimeter=0;entryX=0.5;entryY=0;entryDx=0;entryDy=0;endArrow=none;endFill=0;fontFamily=Times New Roman;" edge="1" parent="1" source="OJsQ_6PMIpKqbklDKm9F-1" target="OJsQ_6PMIpKqbklDKm9F-2">
          <mxGeometry relative="1" as="geometry" />
        </mxCell>
        <mxCell id="OJsQ_6PMIpKqbklDKm9F-1" value="rename()" style="html=1;dashed=0;whiteSpace=wrap;shape=mxgraph.dfd.start;fontFamily=Times New Roman;" vertex="1" parent="1">
          <mxGeometry x="40" y="40" width="120" height="40" as="geometry" />
        </mxCell>
        <mxCell id="OJsQ_6PMIpKqbklDKm9F-11" style="edgeStyle=orthogonalEdgeStyle;rounded=0;orthogonalLoop=1;jettySize=auto;html=1;exitX=0.5;exitY=1;exitDx=0;exitDy=0;entryX=0.5;entryY=0;entryDx=0;entryDy=0;endArrow=none;endFill=0;fontFamily=Times New Roman;" edge="1" parent="1" source="OJsQ_6PMIpKqbklDKm9F-2" target="OJsQ_6PMIpKqbklDKm9F-4">
          <mxGeometry relative="1" as="geometry" />
        </mxCell>
        <mxCell id="OJsQ_6PMIpKqbklDKm9F-2" value="Файл открыт" style="rhombus;whiteSpace=wrap;html=1;fontFamily=Times New Roman;" vertex="1" parent="1">
          <mxGeometry x="40" y="120" width="120" height="80" as="geometry" />
        </mxCell>
        <mxCell id="OJsQ_6PMIpKqbklDKm9F-12" value="" style="edgeStyle=orthogonalEdgeStyle;rounded=0;orthogonalLoop=1;jettySize=auto;html=1;endArrow=none;endFill=0;fontFamily=Times New Roman;" edge="1" parent="1" source="OJsQ_6PMIpKqbklDKm9F-4" target="OJsQ_6PMIpKqbklDKm9F-5">
          <mxGeometry relative="1" as="geometry" />
        </mxCell>
        <mxCell id="OJsQ_6PMIpKqbklDKm9F-4" value="Удаление открытого файла" style="shape=process;whiteSpace=wrap;html=1;backgroundOutline=1;fontFamily=Times New Roman;" vertex="1" parent="1">
          <mxGeometry x="40" y="240" width="120" height="80" as="geometry" />
        </mxCell>
        <mxCell id="OJsQ_6PMIpKqbklDKm9F-13" style="edgeStyle=orthogonalEdgeStyle;rounded=0;orthogonalLoop=1;jettySize=auto;html=1;exitX=0.5;exitY=1;exitDx=0;exitDy=0;entryX=0.5;entryY=0;entryDx=0;entryDy=0;endArrow=none;endFill=0;fontFamily=Times New Roman;" edge="1" parent="1" source="OJsQ_6PMIpKqbklDKm9F-5" target="OJsQ_6PMIpKqbklDKm9F-6">
          <mxGeometry relative="1" as="geometry" />
        </mxCell>
        <mxCell id="OJsQ_6PMIpKqbklDKm9F-5" value="Запись в строковую переменную way пути нового файла" style="rounded=0;whiteSpace=wrap;html=1;fontFamily=Times New Roman;" vertex="1" parent="1">
          <mxGeometry x="40" y="360" width="120" height="80" as="geometry" />
        </mxCell>
        <mxCell id="OJsQ_6PMIpKqbklDKm9F-14" style="edgeStyle=orthogonalEdgeStyle;rounded=0;orthogonalLoop=1;jettySize=auto;html=1;exitX=0.5;exitY=1;exitDx=0;exitDy=0;entryX=0.5;entryY=0;entryDx=0;entryDy=0;endArrow=none;endFill=0;fontFamily=Times New Roman;" edge="1" parent="1" source="OJsQ_6PMIpKqbklDKm9F-6" target="OJsQ_6PMIpKqbklDKm9F-7">
          <mxGeometry relative="1" as="geometry" />
        </mxCell>
        <mxCell id="OJsQ_6PMIpKqbklDKm9F-6" value="Запись в новый файла содержимое старого файла" style="shape=process;whiteSpace=wrap;html=1;backgroundOutline=1;fontFamily=Times New Roman;" vertex="1" parent="1">
          <mxGeometry x="40" y="480" width="120" height="80" as="geometry" />
        </mxCell>
        <mxCell id="OJsQ_6PMIpKqbklDKm9F-15" style="edgeStyle=orthogonalEdgeStyle;rounded=0;orthogonalLoop=1;jettySize=auto;html=1;exitX=0.5;exitY=1;exitDx=0;exitDy=0;entryX=0.5;entryY=0;entryDx=0;entryDy=0;endArrow=none;endFill=0;fontFamily=Times New Roman;" edge="1" parent="1" source="OJsQ_6PMIpKqbklDKm9F-7" target="OJsQ_6PMIpKqbklDKm9F-8">
          <mxGeometry relative="1" as="geometry" />
        </mxCell>
        <mxCell id="OJsQ_6PMIpKqbklDKm9F-7" value="имя открытого файла = путь нового фалй" style="rounded=0;whiteSpace=wrap;html=1;fontFamily=Times New Roman;" vertex="1" parent="1">
          <mxGeometry x="40" y="600" width="120" height="80" as="geometry" />
        </mxCell>
        <mxCell id="OJsQ_6PMIpKqbklDKm9F-8" value="file_info(way)" style="shape=process;whiteSpace=wrap;html=1;backgroundOutline=1;fontFamily=Times New Roman;" vertex="1" parent="1">
          <mxGeometry x="40" y="720" width="120" height="80" as="geometry" />
        </mxCell>
        <mxCell id="OJsQ_6PMIpKqbklDKm9F-9" value="Конец" style="html=1;dashed=0;whiteSpace=wrap;shape=mxgraph.dfd.start;fontFamily=Times New Roman;" vertex="1" parent="1">
          <mxGeometry x="40" y="840" width="120" height="40" as="geometry" />
        </mxCell>
        <mxCell id="OJsQ_6PMIpKqbklDKm9F-16" style="edgeStyle=orthogonalEdgeStyle;rounded=0;orthogonalLoop=1;jettySize=auto;html=1;exitX=0.5;exitY=1;exitDx=0;exitDy=0;entryX=0.5;entryY=0.5;entryDx=0;entryDy=-20;entryPerimeter=0;endArrow=none;endFill=0;fontFamily=Times New Roman;" edge="1" parent="1" source="OJsQ_6PMIpKqbklDKm9F-8" target="OJsQ_6PMIpKqbklDKm9F-9">
          <mxGeometry relative="1" as="geometry" />
        </mxCell>
      </root>
    </mxGraphModel>
  </diagram>
</mxfile>
